# xmcd
#
# Track frame offsets:
#	150
#	19375
#	37054
#	57171
#	72945
#	86079
#	100651
#	116550
#	136590
#	153534
#	171091
#	187276
#	204091
#	221220
#	240613
#	257780
#	278089
#	296809
#
# Disc length: 4221 seconds
#
# Revision: 0
# Processed by: cddbd v1.4PL0 Copyright (c) Steve Scherf et al.
# Submitted via: dBpowerAMP V4.0
#
DISCID=11107b12
DTITLE=Natasa Theodoridou - Mia Diadromi Thesoloniki Athina
DYEAR=2003
DGENRE=
TTITLE0=Feggari
TTITLE1=Ax
TTITLE2=Den S'Adiko
TTITLE3=Axaristi Kardia
TTITLE4=Kindinos Thanatos
TTITLE5=Perasmenes Mou Agapes
TTITLE6=Sbise ti Floga
TTITLE7=Mia Xameni Kiriaki
TTITLE8=Nekro Mou Oneiro
TTITLE9=Den Eimai Ego
TTITLE10=An Yparxei Paradeisos
TTITLE11=Ti Ftaiw
TTITLE12=Sosto i Lathos
TTITLE13=Sou Bazo Diskola
TTITLE14=Den Xero Poso S'Agapo
TTITLE15=Kali Tyxi
TTITLE16=Tora Klais Giati Klais
TTITLE17=Den Thelo Tetoious Filous
EXTD=
EXTT0=
EXTT1=
EXTT2=
EXTT3=
EXTT4=
EXTT5=
EXTT6=
EXTT7=
EXTT8=
EXTT9=
EXTT10=
EXTT11=
EXTT12=
EXTT13=
EXTT14=
EXTT15=
EXTT16=
EXTT17=
PLAYORDER=
